<svg id="visual" viewBox="0 0 540 960" width="540" height="960" xmlns="http://www.w3.org/2000/svg" xmlns:xlink="http://www.w3.org/1999/xlink" version="1.1"><rect x="0" y="0" width="540" height="960" fill="#001220"></rect><path d="M0 465L11.3 476.5C22.7 488 45.3 511 67.8 537.3C90.3 563.7 112.7 593.3 135.2 601.3C157.7 609.3 180.3 595.7 202.8 584.2C225.3 572.7 247.7 563.3 270.2 565.7C292.7 568 315.3 582 337.8 605.2C360.3 628.3 382.7 660.7 405.2 666.3C427.7 672 450.3 651 472.8 646.5C495.3 642 517.7 654 528.8 660L540 666L540 961L528.8 961C517.7 961 495.3 961 472.8 961C450.3 961 427.7 961 405.2 961C382.7 961 360.3 961 337.8 961C315.3 961 292.7 961 270.2 961C247.7 961 225.3 961 202.8 961C180.3 961 157.7 961 135.2 961C112.7 961 90.3 961 67.8 961C45.3 961 22.7 961 11.3 961L0 961Z" fill="#0066ff"></path><path d="M0 689L11.3 678.8C22.7 668.7 45.3 648.3 67.8 642.3C90.3 636.3 112.7 644.7 135.2 669C157.7 693.3 180.3 733.7 202.8 754.5C225.3 775.3 247.7 776.7 270.2 780.8C292.7 785 315.3 792 337.8 779.2C360.3 766.3 382.7 733.7 405.2 714.7C427.7 695.7 450.3 690.3 472.8 694.5C495.3 698.7 517.7 712.3 528.8 719.2L540 726L540 961L528.8 961C517.7 961 495.3 961 472.8 961C450.3 961 427.7 961 405.2 961C382.7 961 360.3 961 337.8 961C315.3 961 292.7 961 270.2 961C247.7 961 225.3 961 202.8 961C180.3 961 157.7 961 135.2 961C112.7 961 90.3 961 67.8 961C45.3 961 22.7 961 11.3 961L0 961Z" fill="#004ca0"></path><path d="M0 805L11.3 814.8C22.7 824.7 45.3 844.3 67.8 851.8C90.3 859.3 112.7 854.7 135.2 839.5C157.7 824.3 180.3 798.7 202.8 789.8C225.3 781 247.7 789 270.2 804.3C292.7 819.7 315.3 842.3 337.8 833.5C360.3 824.7 382.7 784.3 405.2 788.5C427.7 792.7 450.3 841.3 472.8 841.5C495.3 841.7 517.7 793.3 528.8 769.2L540 745L540 961L528.8 961C517.7 961 495.3 961 472.8 961C450.3 961 427.7 961 405.2 961C382.7 961 360.3 961 337.8 961C315.3 961 292.7 961 270.2 961C247.7 961 225.3 961 202.8 961C180.3 961 157.7 961 135.2 961C112.7 961 90.3 961 67.8 961C45.3 961 22.7 961 11.3 961L0 961Z" fill="#122b44"></path></svg>